<svg id="Capa_1" enable-background="new 0 0 512.182 512.182" height="512" viewBox="0 0 512.182 512.182" width="512" xmlns="http://www.w3.org/2000/svg"><g><path d="m469.752 113.143 42.429-42.429-70.713-70.714-42.429 42.429-38.893-38.892-42.429 42.428-21.215-21.215-70.714 70.714 60.108 60.108-130.323 130.324-60.108-60.108-70.714 70.714 21.214 21.215-42.429 42.428 38.894 38.894-42.429 42.428 70.713 70.714 42.429-42.429 38.893 38.893 42.429-42.428 21.214 21.214 70.714-70.714-60.108-60.108 130.323-130.323 60.108 60.108 70.714-70.714-21.214-21.215 42.429-42.429zm-28.284-70.716 28.287 28.288-21.216 21.215-28.288-28.288zm-370.754 427.328-28.287-28.288 21.216-21.216 28.288 28.288zm81.322-3.536-106.074-106.074 21.216-21.216 106.074 106.074zm63.644-21.215-148.503-148.503 28.288-28.287 148.503 148.503zm-10.607-109.608-28.287-28.287 130.323-130.323 28.287 28.287zm211.644-91.429-148.503-148.503 28.288-28.287 148.503 148.503zm-77.788-176.789 21.216-21.216 106.075 106.075-21.216 21.216z"/></g></svg>