<?xml version="1.0"?>
<svg xmlns="http://www.w3.org/2000/svg" viewBox="0 0 512 512" width="512" height="512"><g id="outline"><path d="M304,176a56,56,0,1,0,56,56A56.063,56.063,0,0,0,304,176Zm0,96a40,40,0,1,1,40-40A40.045,40.045,0,0,1,304,272Z"/><path d="M479.583,200.939a161.925,161.925,0,0,0-9.233-36.334A32,32,0,0,0,456,104H391.992A120.139,120.139,0,0,0,320,80H65.66a8,8,0,0,0-7,4.135l-17.66,32,0,.009A8.2,8.2,0,0,0,40,119.987V216a8,8,0,0,0,8,8H184.268c-.179,2.671-.268,5.343-.268,8a120,120,0,0,0,234.146,37.028A120.171,120.171,0,0,0,435.681,168H454.5a145.958,145.958,0,0,1,9.3,35.6c.011.1.024.2.038.3a146.589,146.589,0,0,1-22.052,97.66A162.418,162.418,0,0,0,416,389.32V400a40,40,0,0,0,80,0V303.37A327.17,327.17,0,0,0,479.583,200.939ZM472,136a15.916,15.916,0,0,1-4.679,11.305,16.2,16.2,0,0,1-3.424,2.6l-.022-.044-8.72-17.44a8,8,0,0,0-14.31,7.156L447.056,152H429.992a120.141,120.141,0,0,0-20.571-32H456A16.019,16.019,0,0,1,472,136ZM211.056,96l-8,16H156.944l8-16ZM70.382,96h76.674l-8,16h-77.5ZM304,336A104.118,104.118,0,0,1,200,232a105.32,105.32,0,0,1,1.062-14.867A8,8,0,0,0,193.143,208H56V128H304a104,104,0,0,1,0,208ZM422.854,215.45A120.179,120.179,0,0,0,304,112H220.944l8-16H320A103.915,103.915,0,0,1,424,200,105.37,105.37,0,0,1,422.854,215.45ZM480,400a24,24,0,0,1-48,0V389.32a146.438,146.438,0,0,1,23.24-79.115,162.419,162.419,0,0,0,21.59-51.233,311.991,311.991,0,0,1,3.17,44.4Z"/><rect x="16" y="240" width="40" height="16"/><rect x="72" y="240" width="16" height="16"/></g></svg>
