<svg id="Capa_1" enable-background="new 0 0 512 512" height="512" viewBox="0 0 512 512" width="512" xmlns="http://www.w3.org/2000/svg"><g><path d="m380.533 149.1h-1.066v-77.6c0-39.425-32.075-71.5-71.5-71.5h-2.267-33.134-33.133-33.133-2.267c-39.425 0-71.5 32.075-71.5 71.5v77.6h-1.066c-8.547 0-15.5 6.953-15.5 15.5v116.533c0 8.547 6.953 15.5 15.5 15.5h1.066v83.9c0 8.547 6.953 15.5 15.5 15.5h17.634v108.467c0 4.142 3.357 7.5 7.5 7.5h165.666c4.143 0 7.5-3.358 7.5-7.5v-42.983c0-4.142-3.357-7.5-7.5-7.5s-7.5 3.358-7.5 7.5v35.483h-150.666v-100.967h150.666v36.467c0 4.142 3.357 7.5 7.5 7.5s7.5-3.358 7.5-7.5v-36.467h17.634c8.547 0 15.5-6.953 15.5-15.5v-83.9h1.066c8.547 0 15.5-6.953 15.5-15.5v-116.533c0-8.547-6.953-15.5-15.5-15.5zm-16.066-77.6v77.6h-51.267v-133.848c28.709 2.65 51.267 26.859 51.267 56.248zm-66.267-56.5v134.1h-18.134v-134.1zm-51.266 134.1v-134.1h18.133v134.1zm-15-134.1v134.1h-18.134v-134.1zm33.132 281.633v51.267h-18.133v-51.267zm33.134 51.267h-18.134v-51.267h18.134zm-66.266 0h-18.134v-51.267h18.134zm-33.134 0h-51.267v-51.267h51.267zm165.167 33.133h-25.134-165.666-25.134c-.275 0-.5-.224-.5-.5v-17.633h58.767 33.134 33.133 33.133 58.767v17.633c0 .276-.225.5-.5.5zm.5-33.133h-51.267v-51.267h51.267zm16.066-66.267h-8.566-66.267-33.134-33.133-33.133-66.267-8.566c-.275 0-.5-.224-.5-.5v-50.767h75.333c4.143 0 7.5-3.358 7.5-7.5s-3.357-7.5-7.5-7.5h-75.333v-50.766c0-.276.225-.5.5-.5h26.7c4.143 0 7.5-3.358 7.5-7.5s-3.357-7.5-7.5-7.5h-10.634v-77.6c0-29.389 22.558-53.598 51.267-56.249v133.849h-10.633c-4.143 0-7.5 3.358-7.5 7.5s3.357 7.5 7.5 7.5h18.133 33.134 33.133 33.133 74.833c.275 0 .5.224.5.5v50.767h-75.333c-4.143 0-7.5 3.358-7.5 7.5s3.357 7.5 7.5 7.5h75.333v50.767c0 .275-.224.499-.5.499z"/><path d="m256 197.233c4.999 0 9.066 4.067 9.066 9.066 0 4.142 3.357 7.5 7.5 7.5s7.5-3.358 7.5-7.5c0-13.27-10.796-24.066-24.066-24.066s-24.066 10.796-24.066 24.066v33.133c0 13.27 10.796 24.067 24.066 24.067 13.271 0 24.066-10.796 24.066-24.067 0-4.142-3.357-7.5-7.5-7.5s-7.5 3.358-7.5 7.5c0 4.999-4.067 9.067-9.066 9.067s-9.066-4.067-9.066-9.067v-33.132c0-4.999 4.067-9.067 9.066-9.067z"/><path d="m64.7 222.867c0-4.142-3.357-7.5-7.5-7.5h-49.7c-4.143 0-7.5 3.358-7.5 7.5s3.357 7.5 7.5 7.5h49.7c4.143 0 7.5-3.358 7.5-7.5z"/><path d="m81.027 287.807-35.142 35.143c-2.929 2.929-2.929 7.678 0 10.607 1.465 1.464 3.385 2.197 5.304 2.197s3.839-.732 5.304-2.197l35.143-35.143c2.929-2.929 2.929-7.678 0-10.607-2.931-2.929-7.679-2.929-10.609 0z"/><path d="m80.967 157.901c1.465 1.464 3.385 2.197 5.304 2.197s3.839-.732 5.304-2.197c2.929-2.929 2.929-7.678 0-10.607l-35.144-35.143c-2.93-2.928-7.678-2.93-10.607 0-2.929 2.929-2.929 7.678 0 10.606z"/><path d="m504.5 215.367h-49.7c-4.143 0-7.5 3.358-7.5 7.5s3.357 7.5 7.5 7.5h49.7c4.143 0 7.5-3.358 7.5-7.5s-3.357-7.5-7.5-7.5z"/><path d="m430.973 287.807c-2.929-2.929-7.677-2.929-10.607 0-2.929 2.929-2.929 7.678 0 10.607l35.143 35.143c1.465 1.465 3.384 2.197 5.304 2.197 1.919 0 3.839-.732 5.304-2.197 2.929-2.929 2.929-7.678 0-10.607z"/><path d="m425.729 160.098c1.919 0 3.839-.732 5.304-2.197l35.144-35.143c2.929-2.929 2.929-7.678 0-10.606-2.929-2.929-7.677-2.93-10.607 0l-35.143 35.143c-2.929 2.929-2.929 7.678 0 10.607 1.464 1.464 3.383 2.196 5.302 2.196z"/></g></svg>