<svg height="511pt" viewBox="-45 0 511 511.998" width="511pt" xmlns="http://www.w3.org/2000/svg"><path d="m211.71875 30.203125c-13.925781 0-25.253906 11.332031-25.253906 25.257813 0 13.925781 11.328125 25.355468 25.253906 25.355468s25.257812-11.433594 25.257812-25.355468c0-13.925782-11.332031-25.257813-25.257812-25.257813zm0 35.511719c-5.65625 0-10.257812-4.601563-10.257812-10.253906 0-5.65625 4.601562-10.257813 10.257812-10.257813s10.257812 4.601563 10.257812 10.257813c0 5.652343-4.601562 10.253906-10.257812 10.253906zm0 0"/><path d="m395.539062 310.59375v-179.804688s25.25-.617187 25.25-24.984374c0-13.777344-11.210937-24.988282-24.984374-24.988282h-19.738282c-4.140625 0-7.5 3.359375-7.5 7.5 0 4.144532 3.359375 7.5 7.5 7.5h19.738282c5.503906 0 9.984374 4.480469 9.984374 9.988282 0 5.503906-4.480468 9.984374-9.984374 9.984374h-370.320313c-5.507813 0-9.984375-4.480468-9.984375-9.984374 0-5.507813 4.476562-9.988282 9.984375-9.988282h316.816406c4.144531 0 7.5-3.355468 7.5-7.5 0-4.140625-3.355469-7.5-7.5-7.5h-81.265625c4.011719-7.769531 6.144532-16.425781 6.144532-25.355468 0-30.582032-24.878907-55.460938-55.460938-55.460938s-55.460938 24.878906-55.460938 55.460938c0 8.890624 2.152344 17.566406 6.164063 25.355468h-136.9375c-13.777344 0-24.984375 11.210938-24.984375 24.984375 0 23.929688 25.25 24.988281 25.25 24.988281v179.800782s-25.25 1.785156-25.25 24.988281c0 13.777344 11.207031 24.984375 24.984375 24.984375h196.113281v63.511719c-3.953125-2.164063-11.886718-5.332031-21.910156.019531v-38.207031c0-4.144531-3.355469-7.5-7.5-7.5-4.140625 0-7.5 3.355469-7.5 7.5v47.238281l-55.210938 33.460938c-11.539062 6.996093-15.238281 22.074218-8.242187 33.613281 3.386719 5.589843 10.292969 11.796875 20.972656 11.796875 4.417969 0 8.765625-1.203125 12.640625-3.550782l55.796875-33.820312 55.796875 33.820312c11.542969 6.992188 26.617188 3.292969 33.613282-8.246093 6.992187-11.539063 3.296874-26.617188-8.246094-33.613281l-55.207032-33.457032v-72.566406h159.203126c13.777343 0 24.984374-11.207031 24.984374-24.984375 0-23.90625-25.25-24.984375-25.25-24.984375zm-224.28125-255.132812c0-22.3125 18.152344-40.460938 40.460938-40.460938s40.460938 18.148438 40.460938 40.460938c0 9.289062-3.171876 18.175781-8.972657 25.355468h-62.988281c-5.789062-7.175781-8.960938-16.113281-8.960938-25.355468zm115.96875 436.964843c-2.507812 4.582031-8.546874 5.902344-13.011718 3.191407l-59.683594-36.171876c-2.390625-1.449218-5.382812-1.449218-7.773438 0l-59.6875 36.171876c-6.398437 4.003906-11.695312-1.027344-13.007812-3.191407-2.707031-4.464843-1.277344-10.300781 3.191406-13.007812l68.542969-41.542969c2.027344-1.257812 3.636719-1.710938 5.003906-1.710938 1.867188 0 3.277344.851563 4.660157 1.691407l68.574218 41.5625s7.890625 4.429687 3.191406 13.007812zm-246.480468-361.636719h339.792968v179.804688h-339.792968zm355.058594 214.773438h-370.320313c-5.507813 0-9.984375-4.476562-9.984375-9.984375s4.476562-9.984375 9.984375-9.984375h370.320313c5.503906 0 9.984374 4.476562 9.984374 9.984375s-4.480468 9.984375-9.984374 9.984375zm0 0"/><path d="m92.324219 240.992188c-13.910157 0-25.226563 11.3125-25.226563 25.222656s11.316406 25.226562 25.226563 25.226562c13.90625 0 25.222656-11.316406 25.222656-25.226562s-11.316406-25.222656-25.222656-25.222656zm0 35.449218c-5.640625 0-10.226563-4.589844-10.226563-10.226562 0-5.640625 4.585938-10.226563 10.226563-10.226563 5.636719 0 10.222656 4.585938 10.222656 10.226563 0 5.636718-4.585937 10.226562-10.222656 10.226562zm0 0"/><path d="m327.800781 251.375c-13.910156 0-25.226562 11.3125-25.226562 25.222656s11.316406 25.226563 25.226562 25.226563c13.90625 0 25.222657-11.316407 25.222657-25.226563s-11.316407-25.222656-25.222657-25.222656zm0 35.449219c-5.640625 0-10.226562-4.589844-10.226562-10.226563 0-5.636718 4.585937-10.226562 10.226562-10.226562 5.636719 0 10.222657 4.589844 10.222657 10.226562 0 5.636719-4.585938 10.226563-10.222657 10.226563zm0 0"/><path d="m223.300781 143.949219c-13.90625 0-25.222656 11.3125-25.222656 25.222656s11.316406 25.226563 25.222656 25.226563c13.910157 0 25.226563-11.316407 25.226563-25.226563 0-13.90625-11.316406-25.222656-25.226563-25.222656zm0 35.449219c-5.636719 0-10.222656-4.585938-10.222656-10.226563 0-5.636719 4.585937-10.222656 10.222656-10.222656 5.640625 0 10.226563 4.585937 10.226563 10.222656 0 5.640625-4.585938 10.226563-10.226563 10.226563zm0 0"/><path d="m97.957031 163.226562c-1.421875-1.625-3.476562-2.554687-5.632812-2.554687-2.160157 0-4.214844.929687-5.636719 2.554687l-17.941406 20.433594c-2.734375 3.113282-2.425782 7.851563.6875 10.585938 3.113281 2.734375 7.851562 2.425781 10.585937-.6875l4.804688-5.476563v34.402344c0 4.144531 3.355469 7.5 7.5 7.5 4.140625 0 7.5-3.355469 7.5-7.5v-34.402344l4.804687 5.476563c1.484375 1.6875 5.78125 4.542968 10.585938.6875 3.226562-2.59375 3.417968-7.472656.6875-10.585938zm0 0"/><path d="m198.144531 260.578125-20.433593-17.941406c-3.117188-2.734375-7.855469-2.421875-10.585938.691406-2.734375 3.109375-2.425781 7.851563.6875 10.582031l5.476562 4.804688h-34.40625c-4.140624 0-7.5 3.359375-7.5 7.5 0 4.144531 3.359376 7.5 7.5 7.5h34.40625l-5.476562 4.808594c-3.109375 2.730468-3.421875 7.46875-.6875 10.582031 1.480469 1.6875 6.71875 4.25 10.585938.6875l20.433593-17.941407c1.625-1.421874 2.554688-3.476562 2.554688-5.632812 0-2.164062-.929688-4.214844-2.554688-5.640625zm0 0"/><path d="m334.589844 231.492188c-4.175782-25.085938-21.820313-45.570313-45.3125-53.78125l6.03125-2.6875c3.78125-1.683594 5.484375-6.121094 3.796875-9.902344-1.6875-3.785156-6.121094-5.480469-9.902344-3.796875l-24.839844 11.070312c-1.972656.878907-3.46875 2.566407-4.109375 4.625-.640625 2.0625-.359375 4.300781.765625 6.140625l14.195313 23.195313c3.519531 5.269531 9.089844 3.230469 10.3125 2.480469 3.535156-2.160157 4.644531-6.777344 2.484375-10.3125l-4.179688-6.828126c18.636719 6.304688 32.667969 22.449219 35.960938 42.253907.609375 3.671875 3.488281 6.847656 8.628906 6.167969 4.105469-.539063 6.847656-4.539063 6.167969-8.625zm0 0"/></svg>