<svg xmlns="http://www.w3.org/2000/svg" xmlns:xlink="http://www.w3.org/1999/xlink" width="300px" height="300px" viewBox="0 0 133 133">
 
  <g id="Grupo_de_máscara_1" data-name="Grupo de máscara 1" transform="translate(-124 -239)" clip-path="url(#clip-path)">
    <g id="procurar" transform="translate(124 239)">
      <g id="Grupo_2" data-name="Grupo 2">
        <g id="Grupo_1" data-name="Grupo 1">
          <path id="Caminho_1" data-name="Caminho 1" d="M111.914,22.5A39.034,39.034,0,0,0,65,15.121a2.6,2.6,0,1,0,2.523,4.542A33.773,33.773,0,1,1,53.991,33.191a2.6,2.6,0,0,0-4.553-2.5c-.159.29-.442.829-.715,1.383h0a38.973,38.973,0,1,0,63.19-9.573Z" fill="#fff"/>
        </g>
      </g>
      <g id="Grupo_4" data-name="Grupo 4">
        <g id="Grupo_3" data-name="Grupo 3">
          <path id="Caminho_2" data-name="Caminho 2" d="M118.567,14.433A49.366,49.366,0,0,0,43.68,78.3l-8.1,8.094a7.794,7.794,0,0,0-8.872,1.525l-22.9,22.9A12.989,12.989,0,1,0,22.178,129.19l22.9-22.9a7.794,7.794,0,0,0,1.524-8.872l8.1-8.1a49.366,49.366,0,0,0,63.865-74.886ZM41.408,102.614,18.5,125.517A7.793,7.793,0,0,1,7.483,114.5l22.9-22.9a2.6,2.6,0,0,1,3.673,0l7.35,7.35A2.6,2.6,0,0,1,41.408,102.614Zm1.837-9.185L39.57,89.755l7.4-7.4c.58.644,1.176,1.275,1.787,1.886S50,85.451,50.642,86.031Zm71.647-12.86a44.168,44.168,0,1,1,0-62.462A44.1,44.1,0,0,1,114.892,80.57Z" fill="#fff"/>
        </g>
      </g>
      <g id="Grupo_6" data-name="Grupo 6">
        <g id="Grupo_5" data-name="Grupo 5">
          <path id="Caminho_3" data-name="Caminho 3" d="M59.842,21.848a.738.738,0,0,0-.062-.068A2.6,2.6,0,0,0,56.1,25.457c.023.023.044.044.068.065a2.6,2.6,0,0,0,3.671-3.674Z" fill="#fff"/>
        </g>
      </g>
    </g>
  </g>
</svg>
